<svg width="2276" height="1280" xmlns="http://www.w3.org/2000/svg" xmlns:xlink="http://www.w3.org/1999/xlink" overflow="hidden"><defs><clipPath id="clip0"><rect x="0" y="0" width="2276" height="1280"/></clipPath></defs><g clip-path="url(#clip0)"><rect x="0" y="0" width="2276" height="1279.72" fill="#FFFFFF"/><path d="M883.5 1046.27 973.5 981.284 1063.5 1046.27 973.5 1111.26Z" stroke="#2F528F" stroke-width="1.33363" stroke-miterlimit="8" fill="#4472C4" fill-rule="evenodd"/><text fill="#FFFFFF" font-family="Calibri,Calibri_MSFontService,sans-serif" font-weight="400" font-size="27" transform="matrix(1 0 0 0.99978 955.655 1054)">If<tspan font-size="27" x="20.8379" y="0">B</tspan></text><path d="M998.5 936.794 1146 857.312 1293.5 936.794 1146 1016.28Z" stroke="#2F528F" stroke-width="1.33363" stroke-miterlimit="8" fill="#4472C4" fill-rule="evenodd"/><text fill="#FFFFFF" font-family="Calibri,Calibri_MSFontService,sans-serif" font-weight="400" font-size="27" transform="matrix(1 0 0 0.99978 1085.85 913)">what<tspan font-size="27" x="60.6" y="0">is</tspan><tspan font-size="27" x="83.2716" y="0">the </tspan><tspan font-size="27" x="25.3789" y="32.007">bud</tspan><tspan font-size="27" x="67.3881" y="32.007">(s) </tspan><tspan font-size="27" x="32.4938" y="64.0141">fate?</tspan></text><path d="M1146 796.825 1146 846.677 1142 846.677 1142 796.825ZM1150 844.677 1144 856.677 1138 844.677Z" fill="#4472C4"/><rect x="1030.5" y="706.345" width="227" height="90.98" stroke="#2F528F" stroke-width="1.33363" stroke-miterlimit="8" fill="#4472C4"/><text fill="#FFFFFF" font-family="Calibri,Calibri_MSFontService,sans-serif" font-weight="400" font-size="27" transform="matrix(1 0 0 0.99978 1050.54 760)">How <tspan font-size="27" x="55.5721" y="0">many</tspan><tspan font-size="27" x="121.26" y="0">buds</tspan><tspan font-size="27" x="173.771" y="0">?</tspan></text><rect x="1019.5" y="519.386" width="226" height="73.9838" stroke="#000000" stroke-width="1.00022" stroke-linejoin="round" stroke-miterlimit="10" fill="none"/><text font-family="Calibri,Calibri_MSFontService,sans-serif" font-weight="400" font-size="27" transform="matrix(1 0 0 0.99978 1049.03 548)">Does <tspan font-size="27" x="60.1799" y="0">that</tspan><tspan font-size="27" x="110.778" y="0">node</tspan><tspan font-size="27" x="-5.30774" y="32.007">have</tspan><tspan font-size="27" x="52.1715" y="32.007">a sylleptic?</tspan></text><path d="M1139 592.87 1139 693.898 1135 693.898 1135 592.87ZM1143 691.898 1137 703.898 1131 691.898Z" fill="#4472C4"/><path d="M0 2-285.332 2-283.332 0-283.332 961.223-285.332 959.223 38.0765 959.223 38.0765 963.223-287.332 963.223-287.332-2 0-2ZM36.0756 955.223 48.0756 961.223 36.0756 967.223Z" transform="matrix(1.00022 -1.22465e-16 -1.22492e-16 -1 353 1035.21)"/><path d="M1951.24 648.938 1975.25 648.938 1973.25 650.938 1973.25 71.9841 1975.25 73.9841 1779 73.9841 1779 69.9841 1977.25 69.9841 1977.25 652.938 1951.24 652.938ZM1781 77.9841 1769 71.9841 1781 65.9841Z"/><path d="M1.58334-1.2219 80.619 101.192 77.4523 103.636-1.58334 1.2219ZM82.5637 97.165 85.1451 110.331 73.0637 104.496Z" fill="#2F5597" transform="matrix(-1.00022 0 0 1 1136.16 120.973)"/><path d="M0.0570819-1.99919 172.568 2.92643 172.453 6.9248-0.0570819 1.99919ZM170.682-1.12902 182.506 5.21102 170.34 10.8661Z" fill="#BF9000" transform="matrix(1.00022 0 0 -1 1245 556.09)"/><text font-family="Calibri,Calibri_MSFontService,sans-serif" font-weight="400" font-size="27" transform="matrix(1 0 0 0.99978 1092.35 632)">NO</text><path d="M0 27.9939 8.74808 27.9939 17.4962 27.9939 26.2442 27.9939 34.9923 27.9939 34.9923 29.9934 26.2442 29.9934 17.4962 29.9934 8.74808 29.9934 0 29.9934Z" fill-rule="evenodd" transform="matrix(1.00022 0 0 1 1092.35 607.192)"/><text font-family="Calibri,Calibri_MSFontService,sans-serif" font-weight="400" font-size="27" transform="matrix(1 0 0 0.99978 1283.64 534)">YES</text><path d="M0 27.9939 9.49791 27.9939 18.9958 27.9939 28.4937 27.9939 37.9917 27.9939 37.9917 29.9934 28.4937 29.9934 18.9958 29.9934 9.49791 29.9934 0 29.9934Z" fill-rule="evenodd" transform="matrix(1.00022 0 0 1 1283.64 508.778)"/><path d="M1.59043-1.21266 84.3725 107.358 81.1917 109.783-1.59043 1.21266ZM86.3408 103.342 88.8455 116.523 76.7982 110.618Z" fill="#BF9000" transform="matrix(1.00022 0 0 -1 1574 487.441)"/><text font-family="Calibri,Calibri_MSFontService,sans-serif" font-weight="400" font-size="27" transform="matrix(1 0 0 0.99978 217.405 1010)">YES</text><path d="M0 27.9939 12.6639 27.9939 25.3278 27.9939 37.9917 27.9939 37.9917 29.9934 25.3278 29.9934 12.6639 29.9934 0 29.9934Z" fill-rule="evenodd" transform="matrix(1.00022 0 0 1 217.405 985.091)"/><text font-family="Calibri,Calibri_MSFontService,sans-serif" font-weight="400" font-size="27" transform="matrix(0.948196 0.317546 -0.317755 0.947988 801.122 1114)">NO</text><path d="M0 27.9951 8.74847 27.9951 17.4969 27.9951 26.2454 27.9951 34.9939 27.9951 34.9939 29.9947 26.2454 29.9947 17.4969 29.9947 8.74847 29.9947 0 29.9947Z" fill-rule="evenodd" transform="matrix(0.948362 0.317602 -0.317811 0.948154 809.066 1090.34)"/><path d="M0.220095-1.98785 405.883 42.9271 405.443 46.9028-0.220095 1.98785ZM404.336 38.7314 415.603 46.0155 403.016 50.6585Z" fill="#5B7CBA" transform="matrix(-1.00022 0 0 1 1014.69 934.795)"/><path d="M1696.87 377.218 1784.65 612.598 1780.9 613.995 1693.13 378.616ZM1787.7 609.327 1786.27 622.667 1776.45 613.518Z" fill="#BF9000"/><path d="M1.88787-0.66025 84.997 236.977 81.2213 238.297-1.88787 0.66025ZM88.1126 233.768 86.4105 247.076 76.7854 237.73Z" fill="#BF9000" transform="matrix(-1.00022 0 0 1 1979.43 370.919)"/><path d="M598.463 1080.82 987.318 1173.25 986.393 1177.14 597.537 1084.71ZM986.299 1168.89 996.588 1177.51 983.522 1180.57Z" fill="#5B7CBA"/><path d="M1.26204-1.55153 544.86 440.621 542.336 443.724-1.26204 1.55153ZM545.832 436.255 551.355 448.482 538.26 445.564Z" fill="#BF9000" transform="matrix(-1.00022 0 0 1 1844.48 725.841)"/><text font-family="Calibri,Calibri_MSFontService,sans-serif" font-weight="400" font-size="27" transform="matrix(0.686035 -0.727249 0.727729 0.685884 1717.35 860)">NO</text><path d="M0 27.9935 8.74797 27.9935 17.4959 27.9935 26.2439 27.9935 34.9919 27.9935 34.9919 29.993 26.2439 29.993 17.4959 29.993 8.74797 29.993 0 29.993Z" fill-rule="evenodd" transform="matrix(0.686194 -0.727418 0.727898 0.686043 1699.16 843.005)"/><text font-family="Calibri,Calibri_MSFontService,sans-serif" font-style="italic" font-weight="400" font-size="24" transform="matrix(1 0 0 0.99978 1190.4 434)">For <tspan font-size="24" x="36.6479" y="0">each</tspan><tspan font-size="24" x="-26.7859" y="29.0064">LATERAL </tspan><tspan font-size="24" x="61.1001" y="29.0064">node</tspan></text><path d="M998.5 1174.74 1146 1132.25 1293.5 1174.74 1146 1217.23Z" stroke="#000000" stroke-width="1.33363" stroke-miterlimit="8" fill="none" fill-rule="evenodd"/><text font-family="Calibri,Calibri_MSFontService,sans-serif" font-weight="400" font-size="27" transform="matrix(1 0 0 0.99978 1113.87 1183)">latent</text><path d="M353.5 1035.27 518 930.296 682.5 1035.27 518 1140.25Z" stroke="#2F528F" stroke-width="1.33363" stroke-miterlimit="8" fill="#4472C4" fill-rule="evenodd"/><text fill="#FFFFFF" font-family="Calibri,Calibri_MSFontService,sans-serif" font-weight="400" font-size="27" transform="matrix(1 0 0 0.99978 467.393 1012)">if<tspan font-size="27" x="20.3378" y="0">M or V: </tspan><tspan font-size="27" x="13.443" y="32.007">does</tspan><tspan font-size="27" x="71.289" y="32.007">it</tspan><tspan font-size="27" x="8.56857" y="64.0141">sprout</tspan><tspan font-size="27" x="78.9907" y="64.0141">?</tspan></text><text font-family="Calibri,Calibri_MSFontService,sans-serif" font-style="italic" font-weight="400" font-size="24" transform="matrix(0.396617 0.917581 -0.918186 0.39653 1720.06 396)">For <tspan font-size="24" x="36.9901" y="0.147732">each</tspan><tspan font-size="24" x="88.2835" y="-0.0183334">bud</tspan></text><path d="M1785 323.928 1871.85 323.928 1871.85 327.928 1785 327.928ZM1869.84 319.928 1881.85 325.928 1869.84 331.928Z" fill="#BF9000"/><text font-family="Calibri,Calibri_MSFontService,sans-serif" font-style="italic" font-weight="400" font-size="24" transform="matrix(0.988193 -0.153145 0.153246 0.987976 752.429 943)">For <tspan font-size="24" x="36.7075" y="-0.383025">each</tspan><tspan font-size="24" x="88.3987" y="-0.467782">bud</tspan></text><text font-family="Calibri,Calibri_MSFontService,sans-serif" font-style="italic" font-weight="400" font-size="24" transform="matrix(0.324079 -0.945614 0.946238 0.324008 1911.28 523)">For <tspan font-size="24" x="36.9746" y="-0.111885">each</tspan><tspan font-size="24" x="88.7781" y="-0.1548">bud</tspan></text><path d="M1424.5 527.384C1424.5 495.911 1463.9 470.397 1512.5 470.397 1561.1 470.397 1600.5 495.911 1600.5 527.384 1600.5 558.857 1561.1 584.372 1512.5 584.372 1463.9 584.372 1424.5 558.857 1424.5 527.384Z" stroke="#7F6000" stroke-width="1.33363" stroke-miterlimit="8" fill="#BF9000" fill-rule="evenodd"/><text fill="#FFFFFF" font-family="Calibri,Calibri_MSFontService,sans-serif" font-weight="400" font-size="27" transform="matrix(1 0 0 0.99978 1487 504)">How <tspan font-size="27" x="-5.05444" y="32.007">many</tspan><tspan font-size="27" x="-7.63501" y="64.0141">buds</tspan><tspan font-size="27" x="44.8765" y="64.0141">?</tspan></text><path d="M1593.5 324.929C1593.5 294.836 1636.48 270.441 1689.5 270.441 1742.52 270.441 1785.5 294.836 1785.5 324.929 1785.5 355.021 1742.52 379.417 1689.5 379.417 1636.48 379.417 1593.5 355.021 1593.5 324.929Z" stroke="#7F6000" stroke-width="1.33363" stroke-miterlimit="8" fill="#BF9000" fill-rule="evenodd"/><text fill="#FFFFFF" font-family="Calibri,Calibri_MSFontService,sans-serif" font-weight="400" font-size="27" transform="matrix(1 0 0 0.99978 1644.49 317)">Number<tspan font-size="27" x="16.757" y="32.007">of V?</tspan></text><path d="M1883.5 316.43C1883.5 286.061 1926.7 261.443 1980 261.443 2033.3 261.443 2076.5 286.061 2076.5 316.43 2076.5 346.799 2033.3 371.418 1980 371.418 1926.7 371.418 1883.5 346.799 1883.5 316.43Z" stroke="#7F6000" stroke-width="1.33363" stroke-miterlimit="8" fill="#BF9000" fill-rule="evenodd"/><text fill="#FFFFFF" font-family="Calibri,Calibri_MSFontService,sans-serif" font-weight="400" font-size="27" transform="matrix(1 0 0 0.99978 1935.06 309)">Number<tspan font-size="27" x="12.9227" y="32.007">of M?</tspan></text><path d="M1735.5 651.357 1844 579.373 1952.5 651.357 1844 723.341Z" stroke="#7F6000" stroke-width="1.33363" stroke-miterlimit="8" fill="#BF9000" fill-rule="evenodd"/><text fill="#FFFFFF" font-family="Calibri,Calibri_MSFontService,sans-serif" font-weight="400" font-size="27" transform="matrix(1 0 0 0.99978 1805.59 644)">Does <tspan font-size="27" x="60.1799" y="0">it</tspan><tspan font-size="27" x="-3.70752" y="32.007">sprout</tspan><tspan font-size="27" x="66.7147" y="32.007">?</tspan></text><path d="M1014.5 282.438C1014.5 242.682 1070.46 210.454 1139.5 210.454 1208.54 210.454 1264.5 242.682 1264.5 282.438 1264.5 322.194 1208.54 354.422 1139.5 354.422 1070.46 354.422 1014.5 322.194 1014.5 282.438Z" stroke="#000000" stroke-width="1.33363" stroke-miterlimit="8" fill="none" fill-rule="evenodd"/><text font-family="Calibri,Calibri_MSFontService,sans-serif" font-weight="400" font-size="27" transform="matrix(1 0 0 0.99978 1081.52 275)">How <tspan font-size="27" x="55.5723" y="0">many</tspan><tspan font-size="27" x="18.5375" y="32.007">nodes</tspan><tspan font-size="27" x="84.3852" y="32.007">?</tspan></text><path d="M996.5 73.4838C996.5 46.98 1059.18 25.4944 1136.5 25.4944 1213.82 25.4944 1276.5 46.98 1276.5 73.4838 1276.5 99.9877 1213.82 121.473 1136.5 121.473 1059.18 121.473 996.5 99.9877 996.5 73.4838Z" stroke="#000000" stroke-width="1.33363" stroke-miterlimit="8" fill="none" fill-rule="evenodd"/><text font-family="Calibri,Calibri_MSFontService,sans-serif" font-weight="400" font-size="27" transform="matrix(1 0 0 0.99978 1056.38 82)">Shoot<tspan font-size="27" x="69.3485" y="0">order(n)</tspan></text><path d="M1135 348.911 1135.92 501.197 1131.92 501.222 1131 348.935ZM1139.91 499.173 1133.98 511.209 1127.91 499.246Z"/><text font-family="Calibri,Calibri_MSFontService,sans-serif" font-weight="400" font-size="27" transform="matrix(1 0 0 0.99978 848.773 61)">n=n+1</text><path d="M0 27.9939 16.9963 27.9939 33.9925 27.9939 50.9888 27.9939 67.9851 27.9939 67.9851 29.9934 50.9888 29.9934 33.9925 29.9934 16.9963 29.9934 0 29.9934Z" fill-rule="evenodd" transform="matrix(1.00022 0 0 1 848.773 35.8132)"/><path d="M1.27496-1.54094 52.8427 41.1258 50.2928 44.2076-1.27496 1.54094ZM53.8517 36.7689 59.2724 49.0415 46.202 46.0145Z" fill="#5B7CBA" transform="matrix(-1.00022 0 0 1 1082.29 969.787)"/><text font-family="Calibri,Calibri_MSFontService,sans-serif" font-weight="400" font-size="27" transform="matrix(1 0 0 0.99978 2010.21 634)">YES</text><path d="M0 27.9939 12.6639 27.9939 25.3278 27.9939 37.9917 27.9939 37.9917 29.9934 25.3278 29.9934 12.6639 29.9934 0 29.9934Z" fill-rule="evenodd" transform="matrix(1.00022 0 0 1 2010.21 608.925)"/><text font-family="Calibri,Calibri_MSFontService,sans-serif" font-weight="400" font-size="27" transform="matrix(1 0 0 0.99978 1330.41 55)">n=n+2</text><path d="M0 27.9939 16.9963 27.9939 33.9925 27.9939 50.9888 27.9939 67.9851 27.9939 67.9851 29.9934 50.9888 29.9934 33.9925 29.9934 16.9963 29.9934 0 29.9934Z" fill-rule="evenodd" transform="matrix(1.00022 0 0 1 1330.41 29.5622)"/><path d="M1008.18 1072.15 1094.15 1134.91 1091.79 1138.14 1005.82 1075.38ZM1094.89 1130.5 1101.04 1142.42 1087.81 1140.19Z" fill="#5B7CBA"/><rect x="950.5" y="496.391" width="84.9999" height="37.9916" stroke="#385723" stroke-width="1.00022" stroke-linejoin="round" stroke-miterlimit="10" fill="#70AD47"/><text font-family="Calibri,Calibri_MSFontService,sans-serif" font-weight="400" font-size="24" transform="matrix(1 0 0 0.99978 960.834 522)">MOD1</text><rect x="1803.5" y="567.375" width="86" height="38.9914" stroke="#385723" stroke-width="1.00022" stroke-linejoin="round" stroke-miterlimit="10" fill="#70AD47"/><text font-family="Calibri,Calibri_MSFontService,sans-serif" font-weight="400" font-size="24" transform="matrix(1 0 0 0.99978 1814.79 593)">MOD2</text><rect x="978.5" y="884.306" width="86" height="38.9914" stroke="#385723" stroke-width="1.00022" stroke-linejoin="round" stroke-miterlimit="10" fill="#70AD47"/><text font-family="Calibri,Calibri_MSFontService,sans-serif" font-weight="400" font-size="24" transform="matrix(1 0 0 0.99978 989.63 910)">MOD4</text><rect x="474.5" y="907.301" width="86" height="38.9914" stroke="#385723" stroke-width="1.00022" stroke-linejoin="round" stroke-miterlimit="10" fill="#70AD47"/><text font-family="Calibri,Calibri_MSFontService,sans-serif" font-weight="400" font-size="24" transform="matrix(1 0 0 0.99978 485.67 933)">MOD5</text><path d="M1137.54 119.698 1222.53 222.326 1219.45 224.877 1134.46 122.249ZM1224.33 218.235 1227.37 231.304 1215.09 225.887Z" fill="#BF9000"/><path d="M401.5 73.9837C401.5 47.756 464.18 26.4942 541.5 26.4942 618.82 26.4942 681.5 47.756 681.5 73.9837 681.5 100.211 618.82 121.473 541.5 121.473 464.18 121.473 401.5 100.211 401.5 73.9837Z" stroke="#000000" stroke-width="1.33363" stroke-miterlimit="8" fill="none" fill-rule="evenodd"/><text font-family="Calibri,Calibri_MSFontService,sans-serif" font-weight="400" font-size="27" transform="matrix(1 0 0 0.99978 472.085 83)">Shoot<tspan font-size="27" x="69.3486" y="0">length</tspan></text><path d="M0.00446327-1.99999 304.498-1.32047 304.489 2.67952-0.00446327 1.99999ZM302.507-5.32493 314.494 0.701837 302.48 6.67504Z" transform="matrix(1.00022 0 0 -1 682 73.6858)"/><path d="M1490.5 72.484C1490.5 45.9802 1552.96 24.4946 1630 24.4946 1707.04 24.4946 1769.5 45.9802 1769.5 72.484 1769.5 98.9879 1707.04 120.473 1630 120.473 1552.96 120.473 1490.5 98.9879 1490.5 72.484Z" stroke="#000000" stroke-width="1.33363" stroke-miterlimit="8" fill="none" fill-rule="evenodd"/><text font-family="Calibri,Calibri_MSFontService,sans-serif" font-weight="400" font-size="27" transform="matrix(1 0 0 0.99978 1560.42 81)">Shoot<tspan font-size="27" x="69.3485" y="0">length</tspan></text><path d="M0.010114-1.99997 203.532-0.970753 203.512 3.0292-0.010114 1.99997ZM201.552-4.98082 213.522 1.07979 201.491 7.01903Z" transform="matrix(-1.00022 0 0 1 1489.57 71.9841)"/><rect x="1440.5" y="24.4946" width="86" height="38.9915" stroke="#385723" stroke-width="1.00022" stroke-linejoin="round" stroke-miterlimit="10" fill="#70AD47"/><text font-family="Calibri,Calibri_MSFontService,sans-serif" font-weight="400" font-size="24" transform="matrix(1 0 0 0.99978 1450.99 51)">MOD3</text><rect x="617.5" y="25.4944" width="86" height="38.9915" stroke="#385723" stroke-width="1.00022" stroke-linejoin="round" stroke-miterlimit="10" fill="#70AD47"/><text font-family="Calibri,Calibri_MSFontService,sans-serif" font-weight="400" font-size="24" transform="matrix(1 0 0 0.99978 628.721 52)">MOD6</text></g></svg>